<?xml version="1.0" encoding="UTF-8" standalone="no"?> <!-- Created with Vectornator for iOS (http://vectornator.io/) --><!DOCTYPE svg PUBLIC "-//W3C//DTD SVG 1.1//EN" "http://www.w3.org/Graphics/SVG/1.1/DTD/svg11.dtd">
<svg height="100%" style="fill-rule:nonzero;clip-rule:evenodd;stroke-linecap:round;stroke-linejoin:round;" xmlns:xlink="http://www.w3.org/1999/xlink" xmlns="http://www.w3.org/2000/svg" xml:space="preserve" width="100%" xmlns:vectornator="http://vectornator.io" version="1.1" viewBox="0 0 145 67">
<metadata>
<vectornator:setting key="DimensionsVisible" value="1"/>
<vectornator:setting key="PencilOnly" value="0"/>
<vectornator:setting key="SnapToPoints" value="0"/>
<vectornator:setting key="OutlineMode" value="0"/>
<vectornator:setting key="CMYKEnabledKey" value="0"/>
<vectornator:setting key="RulersVisible" value="1"/>
<vectornator:setting key="SnapToEdges" value="0"/>
<vectornator:setting key="GuidesVisible" value="1"/>
<vectornator:setting key="DisplayWhiteBackground" value="1"/>
<vectornator:setting key="doHistoryDisabled" value="0"/>
<vectornator:setting key="SnapToGuides" value="1"/>
<vectornator:setting key="TimeLapseWatermarkDisabled" value="0"/>
<vectornator:setting key="Units" value="Pixels"/>
<vectornator:setting key="DynamicGuides" value="0"/>
<vectornator:setting key="IsolateActiveLayer" value="0"/>
<vectornator:setting key="SnapToGrid" value="0"/>
</metadata>
<defs/>
<g id="Calque 1" vectornator:layerName="Calque 1">
<g opacity="1">
<path d="M17.4314+40.0704L14.7848+63.7915L11.2397+63.7915L8.6912+45.9844L6.69811+63.7262L2.77726+63.7262L0+40.4625L3.31638+40.4625L4.78669+60.9489L7.09019+41.7368L10.2105+41.7368L12.9061+60.3771L14.0497+40.0704L17.4314+40.0704Z" opacity="1" fill="#afd0bf"/>
<path d="M21.2277+54.3488C21.206+54.4686+21.2005+54.5857+21.2114+54.7001C21.2223+54.8144+21.2277+54.9315+21.2277+55.0513C21.2277+56.1404+21.3366+57.058+21.5545+57.8041C21.7723+58.5501+22.0473+59.1682+22.3795+59.6583C22.7117+60.1484+23.0765+60.5242+23.4741+60.7855C23.8716+61.0469+24.2446+61.2403+24.5931+61.3655C24.9416+61.4908+25.2412+61.5643+25.4917+61.5861C25.7422+61.6078+25.8946+61.6187+25.9491+61.6187C25.9382+61.6187+26.0144+61.6106+26.1778+61.5942C26.3412+61.5779+26.5563+61.5343+26.8231+61.4635C27.0899+61.3927+27.3922+61.2811+27.7298+61.1286C28.0674+60.9761+28.4023+60.761+28.7345+60.4833C29.0667+60.2056+29.3798+59.8571+29.6739+59.4378C29.9679+59.0184+30.2076+58.5038+30.3927+57.8939L32.4021+58.4657C32.2388+59.141+32.0209+59.74+31.7487+60.2628C31.4764+60.7855+31.1742+61.243+30.842+61.6351C30.5098+62.0271+30.1558+62.3621+29.7801+62.6398C29.4043+62.9175+29.0367+63.1435+28.6773+63.3178C27.8278+63.7534+26.9184+64.0093+25.9491+64.0856C24.9907+64.0856+24.1439+63.9413+23.4087+63.6527C22.6735+63.364+22.0391+62.9747+21.5055+62.4846C20.9718+61.9945+20.5253+61.4336+20.1658+60.8019C19.8064+60.1702+19.5205+59.5085+19.3082+58.817C19.0958+58.1254+18.9433+57.4338+18.8507+56.7422C18.7582+56.0506+18.7119+55.3998+18.7119+54.7899C18.7119+54.2236+18.7445+53.6028+18.8099+52.9275C18.8752+52.2523+19.0005+51.5716+19.1856+50.8854C19.3708+50.1993+19.6322+49.5349+19.9698+48.8923C20.3074+48.2497+20.7485+47.678+21.2931+47.177C21.8376+46.676+22.4993+46.2757+23.278+45.9762C24.0567+45.6767+24.9798+45.5269+26.0471+45.5269C26.2323+45.5269+26.5345+45.546+26.9538+45.5841C27.3731+45.6222+27.8442+45.7311+28.3669+45.9109C28.8897+46.0906+29.4288+46.3628+29.9843+46.7277C30.5397+47.0925+31.0489+47.6017+31.5118+48.2552C31.9747+48.9087+32.3558+49.7309+32.6554+50.7221C32.9549+51.7132+33.1046+52.9221+33.1046+54.3488L21.2277+54.3488ZM25.9491+48.0265C25.1976+48.0809+24.506+48.2606+23.8743+48.5656C23.602+48.6963+23.3325+48.8624+23.0656+49.0639C22.7988+49.2653+22.551+49.5104+22.3223+49.799C22.0936+50.0876+21.8921+50.428+21.7178+50.8201C21.5436+51.2122+21.4238+51.6641+21.3584+52.176L30.3274+52.176C30.262+51.5334+30.0878+50.9562+29.8046+50.4443C29.5214+49.9324+29.1756+49.4968+28.7672+49.1374C28.3588+48.778+27.9068+48.503+27.4112+48.3124C26.9157+48.1218+26.4283+48.0265+25.9491+48.0265Z" opacity="1" fill="#afd0bf"/>
</g>
<path d="M73.3606+17.9519L67.9429+66.5109L60.6858+66.5109L55.4687+30.0582L51.3887+66.3771L43.3624+66.3771L37.6771+18.7546L44.466+18.7546L47.4759+60.6918L52.1913+21.3631L58.5789+21.3631L64.0969+59.5213L66.4379+17.9519L73.3606+17.9519Z" opacity="1" fill="#f3b266"/>
<path d="M83.8408+33.1015L83.2723+66.5109L78.6906+66.5109L78.2224+32.7002L83.8408+33.1015Z" opacity="1" fill="#afd0bf"/>
<path d="M109.638+42.198C109.682+41.9973+109.705+41.7911+109.705+41.5793C109.705+41.3675+109.705+41.1389+109.705+40.8937C109.705+39.7566+109.543+38.692+109.22+37.6999C108.897+36.7078+108.439+35.8383+107.849+35.0914C107.258+34.3445+106.539+33.7537+105.692+33.3189C104.844+32.8841+103.908+32.6668+102.882+32.6668C101.701+32.6668+100.631+32.8173+99.6719+33.1182C98.7132+33.4192+97.8939+33.8596+97.2139+34.4392C96.5339+35.0189+96.0043+35.7379+95.6253+36.5963C95.2463+37.4547+95.0568+38.4524+95.0568+39.5894C95.0568+40.236+95.2184+40.8993+95.5417+41.5793C95.865+42.2593+96.3499+42.9003+96.9965+43.5022C97.643+44.1042+98.4401+44.6393+99.3876+45.1075C100.335+45.5757+101.444+45.9101+102.715+46.1108C105.101+46.5121+107.046+47.0973+108.551+47.8665C110.056+48.6357+111.238+49.4996+112.096+50.4583C112.954+51.417+113.54+52.4091+113.852+53.4347C114.164+54.4603+114.32+55.419+114.32+56.3108C114.32+56.8682+114.259+57.5036+114.136+58.217C114.013+58.9305+113.785+59.6662+113.45+60.4243C113.116+61.1823+112.653+61.9236+112.062+62.6482C111.472+63.3728+110.708+64.0194+109.772+64.5879C108.835+65.1564+107.715+65.619+106.411+65.9758C105.106+66.3325+103.562+66.5109+101.779+66.5109C101.6+66.5109+101.205+66.4886+100.592+66.444C99.9785+66.3994+99.2539+66.2545+98.4178+66.0092C97.5817+65.764+96.6899+65.3961+95.7424+64.9056C94.7948+64.4151+93.8974+63.724+93.0502+62.8321C92.203+61.9403+91.4617+60.8144+90.8263+59.4544C90.1909+58.0944+89.7728+56.4334+89.5722+54.4715L95.0568+54.1705C95.2129+55.4636+95.4971+56.5449+95.9096+57.4144C96.322+58.2839+96.8014+59.0029+97.3476+59.5715C97.8939+60.14+98.4624+60.5803+99.0532+60.8925C99.644+61.2046+100.201+61.4331+100.725+61.578C101.249+61.723+101.695+61.8066+102.063+61.8289C102.431+61.8512+102.648+61.8623+102.715+61.8623C103.652+61.84+104.504+61.6784+105.274+61.3774C106.043+61.0764+106.695+60.6918+107.23+60.2236C107.765+59.7554+108.178+59.2148+108.467+58.6016C108.757+57.9885+108.902+57.3587+108.902+56.7121C108.902+56.1547+108.802+55.6085+108.601+55.0734C108.4+54.5383+108.027+54.0311+107.481+53.5518C106.935+53.0724+106.188+52.6321+105.24+52.2308C104.293+51.8295+103.072+51.4728+101.578+51.1606C99.1703+50.6924+97.1916+49.9957+95.642+49.0704C94.0925+48.1452+92.8607+47.1308+91.9466+46.0272C91.0325+44.9235+90.3971+43.8032+90.0404+42.6662C89.6837+41.5291+89.5053+40.5035+89.5053+39.5894C89.5053+38.2294+89.7394+36.8415+90.2076+35.4258C90.6758+34.01+91.4394+32.7169+92.4984+31.5464C93.5574+30.3759+94.9453+29.4172+96.662+28.6704C98.3788+27.9235+100.497+27.55+103.016+27.55C105.402+27.7061+107.531+28.2523+109.404+29.1887C110.206+29.59+110.992+30.0972+111.761+30.7104C112.531+31.3235+113.216+32.0759+113.818+32.9677C114.42+33.8596+114.905+34.9019+115.273+36.0946C115.641+37.2874+115.825+38.6642+115.825+40.2248C115.825+40.5593+115.808+40.9104+115.775+41.2783C115.741+41.6461+115.702+42.0196+115.658+42.3986L109.638+42.198Z" opacity="1" fill="#afd0bf"/>
<path d="M140.853+66.5109C140.674+63.122+140.501+60.1066+140.334+57.4646C140.167+54.8226+140.017+52.5875+139.883+50.7593C139.727+48.619+139.571+46.7462+139.415+45.1409C139.214+42.4432+138.868+40.4088+138.378+39.0376C137.887+37.6665+137.252+36.9809+136.472+36.9809C135.736+36.9809+134.972+37.4602+134.181+38.4189C133.389+39.3776+132.603+40.6484+131.823+42.2314C131.043+43.8144+130.29+45.6258+129.566+47.6658C128.841+49.7059+128.183+51.8072+127.593+53.9698C127.002+56.1324+126.483+58.2616+126.037+60.3574C125.592+62.4531+125.257+64.3594+125.034+66.0761L120.586+66.2433C120.586+58.3062+120.536+51.3613+120.436+45.4085C120.335+39.4556+120.23+34.495+120.118+30.5264C120.007+26.5579+119.901+23.5815+119.8+21.5972C119.7+19.6129+119.639+18.6208+119.616+18.6208L125.369+18.8883L125.369+46.7796C125.859+45.4196+126.338+44.2268+126.807+43.2012C127.275+42.1757+127.687+41.3173+128.044+40.6261C128.445+39.8235+128.835+39.1324+129.215+38.5527C129.883+37.4825+130.586+36.5238+131.321+35.6766C132.057+34.8294+132.81+34.1104+133.579+33.5196C134.348+32.9287+135.106+32.4773+135.853+32.1651C136.6+31.853+137.33+31.6969+138.043+31.6969C139.448+31.6969+140.596+32.3491+141.488+33.6533C142.38+34.9576+143.038+37.0255+143.461+39.857C143.818+42.1311+144.13+44.6504+144.398+47.415C144.643+49.7783+144.866+52.5652+145.066+55.7757C145.267+58.9862+145.39+62.4754+145.434+66.2433L140.853+66.5109Z" opacity="1" fill="#afd0bf"/>
<path d="M87.2541+27.304C88.416+26.0536+88.3178+24.0931+87.035+22.9337C86.354+22.3183+85.4566+22.044+84.588+22.1258C84.5949+21.2652+84.2395+20.4073+83.5584+19.7917C82.2758+18.6325+80.2869+18.7067+79.1251+19.9572C79.0525+20.0353+78.9838+20.1177+78.9203+20.2023C78.1205+21.2446+77.8518+22.8625+78.1266+25.005C78.3214+26.5234+78.7232+27.7534+78.7402+27.8051L78.871+28.2018L79.2821+28.2994C79.3365+28.3123+80.6289+28.6151+82.1957+28.6905C84.4078+28.7972+86.0336+28.4044+87.0274+27.5236C87.1039+27.4574+87.1813+27.3824+87.2541+27.304Z" opacity="1" fill="#f3b266"/>
<path stroke="#f3b266" stroke-width="2" d="M55.5748+17.7019C55.5748+17.7019+42.1954+13.2615+39.7249+10.7935C37.2543+8.32545+37.2568+4.32251+39.7249+1.85196C42.1929-0.618585+46.1958-0.616056+48.6664+1.85196C51.1369+4.31998+55.5748+17.7019+55.5748+17.7019M55.5748+17.7019C55.5748+17.7019+60.0152+4.32251+62.4832+1.85196C64.9512-0.618585+68.9542-0.616056+71.4247+1.85196C73.8953+4.31998+73.8928+8.32293+71.4247+10.7935C68.9567+13.264+55.5748+17.7019+55.5748+17.7019" fill="none" stroke-linecap="butt" opacity="1" stroke-linejoin="miter"/>
</g>
</svg>
